<svg xmlns="http://www.w3.org/2000/svg" viewBox="0 0 1200 1500" width="1200" height="1500"><rect width="1200" height="1500" fill="#fafaf8"/><rect x="0" y="375" width="8" height="750" fill="#0a0a0a"/><rect x="50" y="470.8851077208406" width="22" height="750" fill="#0a0a0a"/><rect x="100" y="543.2941969615792" width="8" height="750" fill="#0a0a0a"/><rect x="150" y="574.4989973208109" width="22" height="750" fill="#0a0a0a"/><rect x="200" y="556.8594853651364" width="8" height="750" fill="#0a0a0a"/><rect x="250" y="494.6944288207913" width="22" height="750" fill="#0a0a0a"/><rect x="300" y="403.22400161197345" width="8" height="750" fill="#0a0a0a"/><rect x="350" y="304.84335446207604" width="22" height="750" fill="#0a0a0a"/><rect x="400" y="223.63950093841436" width="8" height="750" fill="#0a0a0a"/><rect x="450" y="179.4939764669806" width="22" height="750" fill="#0a0a0a"/><rect x="500" y="183.2151450673723" width="8" height="750" fill="#0a0a0a"/><rect x="550" y="233.89193488592161" width="22" height="750" fill="#0a0a0a"/><rect x="600" y="319.1169003602148" width="8" height="750" fill="#0a0a0a"/><rect x="650" y="418.0239976175631" width="22" height="750" fill="#0a0a0a"/><rect x="700" y="506.3973197437578" width="8" height="750" fill="#0a0a0a"/><rect x="750" y="562.5999953549479" width="22" height="750" fill="#0a0a0a"/><rect x="800" y="572.8716493246764" width="8" height="750" fill="#0a0a0a"/><rect x="850" y="534.697422524698" width="22" height="750" fill="#0a0a0a"/><rect x="900" y="457.4236970483513" width="8" height="750" fill="#0a0a0a"/><rect x="950" y="359.96977590763817" width="22" height="750" fill="#0a0a0a"/><rect x="1000" y="266.19577782212605" width="8" height="750" fill="#0a0a0a"/><rect x="1050" y="199.060848005666" width="22" height="750" fill="#0a0a0a"/><rect x="1100" y="175.0019586898593" width="8" height="750" fill="#0a0a0a"/><rect x="1150" y="199.9095650623143" width="22" height="750" fill="#0a0a0a"/><text x="40" y="1460" font-family="monospace" font-size="22" letter-spacing="4" fill="#0a0a0a" opacity=".7">PROJET DÉMO 02</text></svg>